<svg xmlns="http://www.w3.org/2000/svg" viewBox="0 0 32 32">
  <rect width="32" height="32" rx="2" fill="#0A0A0A"></rect>
  
  <line x1="0" y1="8" x2="32" y2="8" stroke="#E6A020" stroke-width="0.3" opacity="0.15"></line>
  <line x1="0" y1="16" x2="32" y2="16" stroke="#E6A020" stroke-width="0.3" opacity="0.15"></line>
  <line x1="0" y1="24" x2="32" y2="24" stroke="#E6A020" stroke-width="0.3" opacity="0.15"></line>
  
  <circle cx="16" cy="16" r="12" fill="#E6A020" opacity="0.06"></circle>
  
  <path d="M4 6 L4 26 L7.5 26 L7.5 18 L13 26 L17 26 L10.5 17 L16 6 L12.5 6 L7.5 14.5 L7.5 6 Z" fill="#E6A020"></path>
  
  <path d="M18 6 L18 26 L21.5 26 L21.5 13 L27.5 26 L28.5 26 L28.5 6 L25 6 L25 18.5 L19 6 Z" fill="#E6A020"></path>
  
  <rect x="1" y="1" width="30" height="30" rx="1.5" fill="none" stroke="#E6A020" stroke-width="1" opacity="0.3"></rect>
</svg>